<!DOCTYPE svg PUBLIC "-//W3C//DTD SVG 1.1//EN" "http://www.w3.org/Graphics/SVG/1.1/DTD/svg11.dtd">
<!-- Uploaded to: SVG Repo, www.svgrepo.com, Transformed by: SVG Repo Mixer Tools -->
<svg fill="#000000" height="256px" width="256px" version="1.1" id="Capa_1" xmlns="http://www.w3.org/2000/svg" xmlns:xlink="http://www.w3.org/1999/xlink" viewBox="-67.82 -67.82 418.23 418.23" xml:space="preserve" transform="rotate(-45)matrix(1, 0, 0, 1, 0, 0)" stroke="#000000" stroke-width="0.00282591">
<g id="SVGRepo_bgCarrier" stroke-width="0" transform="translate(19.781369999999995,19.781369999999995), scale(0.86)">
<path transform="translate(-67.82, -67.82), scale(13.069687500000002)" d="M16,31.99915628821442C18.944684854356574,31.68429867785595,17.805533511218933,26.220559142721743,19.926750670646097,24.153981786601392C21.182043847486476,22.931023334176245,23.834299989873372,24.48242519487976,25.03032323309367,23.201442471398718C26.194463222258186,21.954607828103683,25.580811317477544,19.875675124440424,25.512717695787288,18.171215737779153C25.45565574934546,16.74289150094609,24.8420146214432,15.440872972585845,24.663625312770435,14.022584057798827C24.464505154083053,12.439473971896817,25.423752655220234,10.524967942745459,24.397336448683404,9.303347644682717C23.362026279102682,8.071141927454297,20.97808120762107,9.242510550232351,19.76180411192346,8.18853327187714C17.9200538132111,6.5925458327373985,18.254480342694876,2.952044029291769,16,2.026550402570713C14.103505123571047,1.248014485443987,11.929099530550577,2.991175111207029,10.384339951739022,4.338961753909638C8.935281242258453,5.603250384916106,8.880263456706121,7.863830135782284,7.632479388979911,9.327124981786444C6.329718463674251,10.854892002445077,3.393997240010882,11.063544644122604,2.975625031306407,13.027271405385271C2.554790396777529,15.002556131991712,5.4483892870005555,16.345978321141605,5.710470598256702,18.34851794049349C6.011531093100789,20.648893979736275,3.019050414688864,23.388672799442826,4.558786281857968,25.12406347673457C6.146890662551074,26.91396887257888,9.59585355103874,23.806807970253967,11.646904262107725,25.039296441061147C14.022153611048001,26.466597785714583,13.244605494891903,32.29377420910659,16,31.99915628821442" fill="#7ed0ec" strokewidth="0"/>
</g>
<g id="SVGRepo_tracerCarrier" stroke-linecap="round" stroke-linejoin="round" stroke="#CCCCCC" stroke-width="5.651820000000001"> <g> <path d="M258.236,145.044c-3.313,0-6,2.687-6,6c0,9.032-2.864,16.066-8.757,21.507c-15.919,14.697-47.978,12.333-48.347,12.301 c-3.271-0.261-6.193,2.189-6.464,5.49c-0.271,3.303,2.187,6.2,5.489,6.47c0.37,0.03,2.77,0.213,6.478,0.213 c11.585,0,35.933-1.79,50.954-15.63c8.392-7.732,12.646-17.944,12.646-30.352C264.236,147.73,261.549,145.044,258.236,145.044z"/> <path d="M21.927,138.732c3.313,0,6-2.687,6-6c0-9.031,2.864-16.066,8.757-21.506c15.921-14.699,47.98-12.331,48.347-12.301 c3.278,0.27,6.194-2.189,6.464-5.49c0.271-3.303-2.187-6.2-5.489-6.47C84.48,86.84,48.403,84.11,28.574,102.38 c-8.392,7.732-12.646,17.944-12.646,30.351C15.927,136.045,18.614,138.732,21.927,138.732z"/> <path d="M153.265,173.988h-45.767c-0.158-0.113-0.322-0.22-0.494-0.319l-49.4-28.521c-2.657-1.534-6.048-0.815-7.854,1.669 l-5.008,6.891c-1.545,2.126-1.526,5.011,0.046,7.117l9.828,13.164H27.29L9.096,163.483c-1.769-1.021-3.935-1.072-5.75-0.137 c-1.814,0.936-3.029,2.73-3.223,4.763c-0.569,5.965,0.839,12.065,3.965,17.176l2.927,4.785l-2.927,4.785 c-3.126,5.11-4.534,11.21-3.965,17.175c0.193,2.033,1.408,3.827,3.223,4.763c0.864,0.445,1.808,0.667,2.75,0.667 c1.037,0,2.073-0.269,3-0.804l18.193-10.504h26.972l-9.473,12.687c-1.572,2.106-1.591,4.99-0.046,7.116l5.008,6.892 c1.166,1.605,2.993,2.474,4.857,2.474c1.021,0,2.055-0.261,2.996-0.804l49.128-28.364h46.249c8.764,0,15.945-6.727,16.349-15.313 c0.209-4.443-1.363-8.659-4.427-11.87C161.883,175.804,157.64,173.988,153.265,173.988z M59.011,159.816l24.546,14.171H69.592 L59.011,159.816z M59.011,219.848l10.225-13.695h13.496L59.011,219.848z M152.981,194.153H25.682c-1.054,0-2.088,0.277-3,0.804 l-7.095,4.096l3.579-5.852c1.176-1.922,1.176-4.34,0-6.262l-3.579-5.852l7.095,4.096c0.912,0.526,1.946,0.804,3,0.804h127.583 c1.127,0,2.177,0.449,2.955,1.266c0.777,0.814,1.176,1.888,1.123,3.022C157.243,192.414,155.286,194.153,152.981,194.153z"/> <path d="M275.575,92.521l2.927-4.785c3.127-5.111,4.535-11.211,3.966-17.175c-0.193-2.033-1.408-3.827-3.223-4.763 c-1.815-0.936-3.981-0.884-5.75,0.137L255.3,76.438H228.33l9.473-12.687c1.572-2.106,1.592-4.991,0.046-7.117l-5.008-6.892 c-1.806-2.484-5.194-3.204-7.854-1.669l-49.128,28.364H129.61c-8.763,0-15.944,6.726-16.35,15.313 c-0.209,4.443,1.363,8.658,4.427,11.87c3.021,3.167,7.263,4.982,11.638,4.982h45.768c0.158,0.113,0.322,0.22,0.494,0.319 l49.4,28.521c0.941,0.543,1.974,0.804,2.996,0.804c1.864,0,3.691-0.869,4.857-2.473l5.008-6.891 c1.545-2.126,1.526-5.011-0.046-7.117l-9.829-13.164H255.3l18.194,10.504c0.927,0.535,1.963,0.804,3,0.804 c0.942,0,1.886-0.222,2.75-0.667c1.814-0.936,3.029-2.73,3.223-4.763c0.569-5.964-0.839-12.064-3.966-17.176L275.575,92.521z M223.58,62.743l-10.226,13.695H199.86L223.58,62.743z M223.579,122.775l-24.545-14.171h13.964L223.579,122.775z M259.908,97.407 c-0.912-0.526-1.947-0.804-3-0.804H129.325c-1.127,0-2.177-0.45-2.955-1.266c-0.777-0.815-1.176-1.888-1.123-3.021 c0.101-2.138,2.059-3.878,4.363-3.878h127.298c1.053,0,2.088-0.277,3-0.804l7.094-4.095l-3.578,5.851 c-1.176,1.922-1.176,4.34,0,6.262l3.579,5.851L259.908,97.407z"/> </g> </g>
<g id="SVGRepo_iconCarrier"> <g> <path d="M258.236,145.044c-3.313,0-6,2.687-6,6c0,9.032-2.864,16.066-8.757,21.507c-15.919,14.697-47.978,12.333-48.347,12.301 c-3.271-0.261-6.193,2.189-6.464,5.49c-0.271,3.303,2.187,6.2,5.489,6.47c0.37,0.03,2.77,0.213,6.478,0.213 c11.585,0,35.933-1.79,50.954-15.63c8.392-7.732,12.646-17.944,12.646-30.352C264.236,147.73,261.549,145.044,258.236,145.044z"/> <path d="M21.927,138.732c3.313,0,6-2.687,6-6c0-9.031,2.864-16.066,8.757-21.506c15.921-14.699,47.98-12.331,48.347-12.301 c3.278,0.27,6.194-2.189,6.464-5.49c0.271-3.303-2.187-6.2-5.489-6.47C84.48,86.84,48.403,84.11,28.574,102.38 c-8.392,7.732-12.646,17.944-12.646,30.351C15.927,136.045,18.614,138.732,21.927,138.732z"/> <path d="M153.265,173.988h-45.767c-0.158-0.113-0.322-0.22-0.494-0.319l-49.4-28.521c-2.657-1.534-6.048-0.815-7.854,1.669 l-5.008,6.891c-1.545,2.126-1.526,5.011,0.046,7.117l9.828,13.164H27.29L9.096,163.483c-1.769-1.021-3.935-1.072-5.75-0.137 c-1.814,0.936-3.029,2.73-3.223,4.763c-0.569,5.965,0.839,12.065,3.965,17.176l2.927,4.785l-2.927,4.785 c-3.126,5.11-4.534,11.21-3.965,17.175c0.193,2.033,1.408,3.827,3.223,4.763c0.864,0.445,1.808,0.667,2.75,0.667 c1.037,0,2.073-0.269,3-0.804l18.193-10.504h26.972l-9.473,12.687c-1.572,2.106-1.591,4.99-0.046,7.116l5.008,6.892 c1.166,1.605,2.993,2.474,4.857,2.474c1.021,0,2.055-0.261,2.996-0.804l49.128-28.364h46.249c8.764,0,15.945-6.727,16.349-15.313 c0.209-4.443-1.363-8.659-4.427-11.87C161.883,175.804,157.64,173.988,153.265,173.988z M59.011,159.816l24.546,14.171H69.592 L59.011,159.816z M59.011,219.848l10.225-13.695h13.496L59.011,219.848z M152.981,194.153H25.682c-1.054,0-2.088,0.277-3,0.804 l-7.095,4.096l3.579-5.852c1.176-1.922,1.176-4.34,0-6.262l-3.579-5.852l7.095,4.096c0.912,0.526,1.946,0.804,3,0.804h127.583 c1.127,0,2.177,0.449,2.955,1.266c0.777,0.814,1.176,1.888,1.123,3.022C157.243,192.414,155.286,194.153,152.981,194.153z"/> <path d="M275.575,92.521l2.927-4.785c3.127-5.111,4.535-11.211,3.966-17.175c-0.193-2.033-1.408-3.827-3.223-4.763 c-1.815-0.936-3.981-0.884-5.75,0.137L255.3,76.438H228.33l9.473-12.687c1.572-2.106,1.592-4.991,0.046-7.117l-5.008-6.892 c-1.806-2.484-5.194-3.204-7.854-1.669l-49.128,28.364H129.61c-8.763,0-15.944,6.726-16.35,15.313 c-0.209,4.443,1.363,8.658,4.427,11.87c3.021,3.167,7.263,4.982,11.638,4.982h45.768c0.158,0.113,0.322,0.22,0.494,0.319 l49.4,28.521c0.941,0.543,1.974,0.804,2.996,0.804c1.864,0,3.691-0.869,4.857-2.473l5.008-6.891 c1.545-2.126,1.526-5.011-0.046-7.117l-9.829-13.164H255.3l18.194,10.504c0.927,0.535,1.963,0.804,3,0.804 c0.942,0,1.886-0.222,2.75-0.667c1.814-0.936,3.029-2.73,3.223-4.763c0.569-5.964-0.839-12.064-3.966-17.176L275.575,92.521z M223.58,62.743l-10.226,13.695H199.86L223.58,62.743z M223.579,122.775l-24.545-14.171h13.964L223.579,122.775z M259.908,97.407 c-0.912-0.526-1.947-0.804-3-0.804H129.325c-1.127,0-2.177-0.45-2.955-1.266c-0.777-0.815-1.176-1.888-1.123-3.021 c0.101-2.138,2.059-3.878,4.363-3.878h127.298c1.053,0,2.088-0.277,3-0.804l7.094-4.095l-3.578,5.851 c-1.176,1.922-1.176,4.34,0,6.262l3.579,5.851L259.908,97.407z"/> </g> </g>
</svg>